name GIL11_xslow1Moments.mot
datacolumns 7
datarows 67
range 0.98333335 1.53333330
endheader

                time	          RHipMoment	          LHipMoment	         RKneeMoment	         LKneeMoment	        RAnkleMoment	        LAnkleMoment	
          0.98333335	        324.20419312	       -165.80184937	       -109.72235870	        -32.88156891	        -21.01631546	        439.33486938	
          0.99166667	        316.39782715	       -164.49235535	       -113.03492737	        -24.93234634	        -16.77419472	        391.50534058	
          1.00000000	        308.36376953	       -174.93000793	       -116.59660339	        -12.63773632	        -13.57030582	        343.22567749	
          1.00833344	        305.85922241	       -197.31913757	       -122.35494232	          6.24815702	         -9.73769855	        295.60354614	
          1.01666665	        308.45141602	       -192.96427917	       -127.94252777	         12.72413540	         -6.68151522	        250.47428894	
          1.02500010	        314.10662842	       -181.45739746	       -133.21929932	         19.80230331	         -4.26751804	        208.49053955	
          1.03333330	        321.66394043	       -155.98510742	       -137.85867310	         22.69017029	         -2.21105027	        169.74006653	
          1.04166675	        335.65216064	       -128.99041748	       -146.05226135	         24.82763290	          1.05333769	        136.47726440	
          1.04999995	        347.53436279	       -111.23361969	       -152.05351257	         29.80722809	          4.56500864	        107.90559387	
          1.05833340	        358.00863647	       -101.46417999	       -161.10520935	         38.52601242	         13.00025749	         84.52950287	
          1.06666672	        363.31686401	        -86.99957275	       -169.04858398	         38.59909058	         23.44980049	         66.06214905	
          1.07500005	        362.70608521	        -82.54136658	       -174.67243958	         37.70763016	         35.49816895	         48.55698013	
          1.08333337	        355.63446045	        -82.27519226	       -174.46235657	         33.22534943	         47.15556335	         32.93616104	
          1.09166670	        346.72055054	        -91.98756409	       -172.30603027	         32.61775589	         60.26992035	         19.37812805	
          1.10000002	        330.89727783	       -106.05593109	       -165.51689148	         35.60295486	         73.93819427	          6.96737862	
          1.10833335	        317.85369873	       -122.50401306	       -160.53089905	         42.65672684	         88.64289856	         -4.61433935	
          1.11666667	        310.13513184	       -142.22369385	       -156.53869629	         52.54650497	        102.34304047	        -14.37059498	
          1.12500000	        307.03457642	       -166.83764648	       -156.56965637	         68.45804596	        117.98519135	        -22.57568550	
          1.13333344	        296.88720703	       -170.61672974	       -155.12673950	         73.60823822	        131.59931946	        -27.29756355	
          1.14166665	        282.74700928	       -143.65463257	       -154.88156128	         57.12689209	        144.35662842	        -27.68756294	
          1.15000010	        265.45910645	       -155.16749573	       -153.43482971	         67.85597229	        154.73410034	        -27.41614151	
          1.15833330	        251.88116455	       -162.65225220	       -154.34439087	         73.27912140	        165.20611572	        -25.97846222	
          1.16666675	        232.79385376	       -163.83024597	       -150.70732117	         72.56540680	        173.40789795	        -23.55966377	
          1.17499995	        216.54129028	       -154.01641846	       -147.41987610	         66.20234680	        182.31967163	        -20.54087830	
          1.18333340	        202.18998718	       -137.32608032	       -140.86132813	         56.77663422	        190.35636902	        -17.37754440	
          1.19166672	        199.02293396	       -121.66693115	       -135.20111084	         47.29216003	        197.07524109	        -14.52526569	
          1.20000005	        195.31114197	       -108.66374207	       -126.86753845	         39.19031906	        201.19126892	        -12.36228180	
          1.20833337	        197.11505127	        -97.18170166	       -121.97615051	         32.40347672	        203.40736389	        -11.06157494	
          1.21666670	        201.84053040	        -86.59295654	       -119.10272217	         26.38078308	        201.91058350	        -10.52496910	
          1.22500002	        209.34796143	        -77.87915802	       -121.42298889	         20.86493301	        199.38729858	        -10.49946976	
          1.23333335	        206.58435059	        -70.62236786	       -121.28944397	         15.86569405	        193.84471130	        -10.73479462	
          1.24166667	        203.79977417	        -60.09722900	       -123.83076477	         11.51861191	        188.19863892	        -11.02924252	
          1.25000000	        193.79125977	        -46.11315155	       -121.18802643	          8.56522274	        182.54718018	        -11.22230721	
          1.25833344	        180.69798279	        -33.63270569	       -114.58130646	          8.01853085	        180.68630981	        -11.18980885	
          1.26666665	        162.57748413	        -26.91647339	       -102.17631531	          9.81214809	        182.56539917	        -10.87635231	
          1.27500010	        148.94621277	        -26.76307869	        -91.76109314	         12.34331799	        190.87075806	        -10.35117722	
          1.28333330	        138.63475037	        -30.42909622	        -81.48091888	         13.47226906	        201.81990051	         -9.78323460	
          1.29166675	        137.22770691	        -36.54692078	        -76.58580017	         11.74354267	        215.25677490	         -9.34412861	
          1.29999995	        138.33851624	        -43.71456146	        -75.47776794	          6.79755306	        230.61543274	         -9.14198875	
          1.30833340	        145.09286499	        -48.63645172	        -81.75039673	         -0.83877802	        248.42317200	         -9.20156288	
          1.31666660	        146.24380493	        -50.75952911	        -87.01667786	        -10.08427334	        265.50054932	         -9.46909428	
          1.32500005	        153.33436584	        -51.26151657	        -97.81259918	        -19.64541245	        285.42425537	         -9.84142685	
          1.33333325	        161.33238220	        -51.32264328	       -110.04127502	        -28.32067871	        308.79556274	        -10.18258381	
          1.34166670	        163.52075195	        -55.21681595	       -121.08636475	        -35.14744568	        336.65936279	        -10.37166691	
          1.35000014	        142.57073975	        -63.99529266	       -122.14636993	        -39.56830597	        366.23007202	        -10.41219044	
          1.35833335	        116.09140778	        -72.60538483	       -121.94806671	        -41.74575806	        397.08193970	        -10.44923210	
          1.36666679	         85.76229095	        -76.49376678	       -119.83615112	        -42.37052536	        428.01074219	        -10.65208912	
          1.37500000	         56.48338318	        -74.96808624	       -120.78942871	        -42.04386139	        458.88973999	        -11.09458542	
          1.38333344	         24.82686996	        -69.12764740	       -121.76392365	        -41.22776413	        486.60696411	        -11.70582485	
          1.39166665	         19.13352966	        -61.53844070	       -137.13729858	        -40.52136612	        513.27124023	        -12.34187031	
          1.40000010	         40.94418716	        -53.27488327	       -163.65631104	        -40.45422363	        537.72943115	        -12.85801983	
          1.40833330	         86.32234955	        -50.01597595	       -199.46630859	        -40.85173416	        560.84930420	        -13.10696030	
          1.41666675	        135.90321350	        -51.86640930	       -235.16184998	        -40.74347305	        582.88940430	        -12.98979473	
          1.42499995	        179.09631348	        -59.42466736	       -267.69473267	        -39.69322586	        605.43701172	        -12.51201820	
          1.43333340	        203.54129028	        -61.74898148	       -291.09048462	        -38.71587372	        630.79656982	        -11.76565933	
          1.44166660	        208.04066467	        -58.01097107	       -306.90646362	        -39.37771606	        657.86639404	        -10.90849686	
          1.45000005	        179.90112305	        -44.28871536	       -309.88037109	        -42.53269958	        685.84228516	        -10.12065601	
          1.45833325	        137.51266479	        -26.44667625	       -309.88052368	        -47.79705429	        715.30303955	         -9.55645847	
          1.46666670	         92.01780701	         -0.94927591	       -306.35382080	        -54.34521103	        743.13952637	         -9.32861996	
          1.47500014	         59.05638504	         19.68379211	       -306.75595093	        -61.55845261	        770.42150879	         -9.45953846	
          1.48333335	         29.56733322	         40.60616684	       -303.87814331	        -68.39369965	        795.54864502	         -9.85431099	
          1.49166679	          1.06313491	         55.87560272	       -298.06887817	        -73.74640656	        818.38708496	        -10.32585430	
          1.50000000	        -33.66339493	         71.49156952	       -284.33499146	        -77.74562836	        839.33880615	        -10.64505100	
          1.50833344	        -49.30877686	         85.44427490	       -275.31301880	        -81.45159149	        858.17694092	        -10.61626244	
          1.51666665	        -55.30932617	        101.43542480	       -267.19958496	        -86.22249603	        873.93487549	        -10.15367126	
          1.52500010	        -43.37872696	        118.68025208	       -267.18191528	        -92.82154083	        886.76135254	         -9.30799770	
          1.53333330	        -16.86985779	        139.93572998	       -272.91748047	       -100.72423553	        896.67773438	         -8.20459175	
